<?xml version="1.0" encoding="UTF-8" standalone="no"?>
<!-- Created with Inkscape (http://www.inkscape.org/) -->

<svg
   xmlns:dc="http://purl.org/dc/elements/1.1/"
   xmlns:cc="http://creativecommons.org/ns#"
   xmlns:rdf="http://www.w3.org/1999/02/22-rdf-syntax-ns#"
   xmlns:svg="http://www.w3.org/2000/svg"
   xmlns="http://www.w3.org/2000/svg"
   xmlns:sodipodi="http://sodipodi.sourceforge.net/DTD/sodipodi-0.dtd"
   xmlns:inkscape="http://www.inkscape.org/namespaces/inkscape"
   width="64px"
   height="64px"
   id="svg2985"
   version="1.1"
   inkscape:version="0.48.5 r10040"
   sodipodi:docname="icon.svg"
   inkscape:export-filename="/home/sam/gciOrg/googlecodein.github.io/icon.png"
   inkscape:export-xdpi="720"
   inkscape:export-ydpi="720">
  <defs
     id="defs2987" />
  <sodipodi:namedview
     id="base"
     pagecolor="#ffffff"
     bordercolor="#666666"
     borderopacity="1.0"
     inkscape:pageopacity="0.0"
     inkscape:pageshadow="2"
     inkscape:zoom="7.7781746"
     inkscape:cx="49.251748"
     inkscape:cy="35.712056"
     inkscape:current-layer="layer2"
     showgrid="true"
     inkscape:document-units="px"
     inkscape:grid-bbox="true"
     inkscape:window-width="1280"
     inkscape:window-height="734"
     inkscape:window-x="0"
     inkscape:window-y="27"
     inkscape:window-maximized="1" />
  <metadata
     id="metadata2990">
    <rdf:RDF>
      <cc:Work
         rdf:about="">
        <dc:format>image/svg+xml</dc:format>
        <dc:type
           rdf:resource="http://purl.org/dc/dcmitype/StillImage" />
        <dc:title />
      </cc:Work>
    </rdf:RDF>
  </metadata>
  <g
     id="layer1"
     inkscape:label="Layer 1"
     inkscape:groupmode="layer">
    <flowRoot
       xml:space="preserve"
       id="flowRoot2993"
       style="font-size:40px;font-style:normal;font-weight:normal;line-height:125%;letter-spacing:0px;word-spacing:0px;fill:#000000;fill-opacity:1;stroke:none;font-family:Sans"><flowRegion
         id="flowRegion2995"><rect
           id="rect2997"
           width="67.63636"
           height="65.63636"
           x="0.54545456"
           y="0.54545456" /></flowRegion><flowPara
         id="flowPara2999">GCIGCI</flowPara><flowPara
         id="flowPara3001" /></flowRoot>    <text
       xml:space="preserve"
       style="font-size:40px;font-style:normal;font-variant:normal;font-weight:normal;font-stretch:normal;line-height:125%;letter-spacing:0px;word-spacing:0px;fill:#ffeb3b;fill-opacity:1;stroke:none;font-family:FreeMono;-inkscape-font-specification:FreeMono"
       x="2.3390908"
       y="23.176697"
       id="text3003"
       sodipodi:linespacing="125%"><tspan
         sodipodi:role="line"
         x="2.3390908"
         y="23.176697"
         id="tspan3045"
         style="font-weight:bold;-inkscape-font-specification:FreeMono Bold">g</tspan><tspan
         sodipodi:role="line"
         x="2.3390908"
         y="73.176697"
         id="tspan3007" /></text>
    <text
       xml:space="preserve"
       style="font-size:40px;font-style:normal;font-variant:normal;font-weight:normal;font-stretch:normal;line-height:125%;letter-spacing:0px;word-spacing:0px;fill:#a9a691;fill-opacity:0.19607843;stroke:none;font-family:FreeMono;-inkscape-font-specification:FreeMono"
       x="1.339"
       y="24.177"
       id="text3003-4"
       sodipodi:linespacing="125%"><tspan
         sodipodi:role="line"
         x="1.339"
         y="24.177"
         id="tspan3045-7"
         style="font-weight:bold;-inkscape-font-specification:FreeMono Bold">g</tspan><tspan
         sodipodi:role="line"
         x="1.339"
         y="74.177002"
         id="tspan3007-0" /></text>
    <flowRoot
       xml:space="preserve"
       id="flowRoot3009"
       style="fill:black;stroke:none;stroke-opacity:1;stroke-width:1px;stroke-linejoin:miter;stroke-linecap:butt;fill-opacity:1;font-family:FontAwesome;font-style:normal;font-weight:normal;font-size:40px;line-height:125%;letter-spacing:0px;word-spacing:0px;-inkscape-font-specification:FontAwesome;font-stretch:normal;font-variant:normal"><flowRegion
         id="flowRegion3011"><rect
           id="rect3013"
           width="84.545456"
           height="146.72728"
           x="-53.272728"
           y="20.727272"
           style="-inkscape-font-specification:FontAwesome;font-family:FontAwesome;font-weight:normal;font-style:normal;font-stretch:normal;font-variant:normal" /></flowRegion><flowPara
         id="flowPara3015" /></flowRoot>    <g
       transform="matrix(0.99968174,-0.02522754,0.02522754,0.99968174,11.442273,17.227692)"
       style="font-size:28.01313590999999903px;font-style:normal;font-weight:normal;line-height:125%;letter-spacing:0px;word-spacing:0px;fill:#4caf50;fill-opacity:1;stroke:none;font-family:Sans"
       id="text3017-1">
      <path
         d="m 21.835625,21.603793 c -2.204136,-0.0095 -4.001877,-1.79772 -4.001877,-4.001876 0,-2.204157 1.79772,-4.001877 4.001877,-4.001877 m -0.0065,0.03219 c -0.156323,-0.515867 8.322945,0.233554 8.057196,-0.26668 0.531499,-0.734719 1.109896,-1.422543 1.641395,-2.141629 0.07816,-0.109426 0.125058,-0.218853 0.125058,-0.359544 0,-0.125058 -0.03127,-0.250117 -0.109426,-0.343911 C 30.886745,9.5981647 29.79248,8.6289581 28.963967,7.8629746 28.854541,7.7691807 28.71385,7.7066513 28.573159,7.7066513 c -0.140691,0 -0.281382,0.046897 -0.375176,0.140691 L 25.978192,9.5200017 C 25.524855,9.2855167 25.055884,9.0979287 24.571283,8.9416054 L 24.133577,6.0652566 C 24.102313,5.7995073 23.852195,5.5962867 23.570813,5.5962867 l -3.470377,0 c -0.281382,0 -0.500235,0.1875883 -0.562764,0.4377053 -0.250117,0.9379389 -0.343911,1.9540422 -0.453337,2.9076134 -0.484602,0.1563233 -0.969205,0.3595443 -1.422542,0.5940283 L 15.504531,7.8629746 c -0.125058,-0.093794 -0.26575,-0.1563233 -0.40644,-0.1563233 -0.531499,0 -2.641865,2.2823204 -3.01704,2.7981877 -0.07816,0.109426 -0.140691,0.218853 -0.140691,0.359543 0,0.140691 0.06253,0.26575 0.156323,0.375176 0.578396,0.703454 1.141161,1.406911 1.67266,2.157262 -0.250118,0.468969 -0.453338,0.93794 -0.609661,1.438174 l -2.907614,0.437705 c -0.234485,0.0469 -0.4220728,0.32828 -0.4220728,0.562764 l 0,3.470378 c 0,0.265749 0.1875888,0.515867 0.4533378,0.562764 l 2.860716,0.422073 c 0.156323,0.531498 0.375177,1.047366 0.640926,1.5476 -0.531499,0.734719 -1.109896,1.422543 -1.641395,2.141629 -0.07816,0.109427 -0.125058,0.218853 -0.125058,0.359544 0,0.125059 0.03126,0.250117 0.109426,0.359544 0.656557,0.906674 1.750822,1.87588 2.579334,2.626231 0.109427,0.109426 0.250118,0.171956 0.390809,0.171956 0.14069,0 0.281382,-0.0469 0.390808,-0.140691 l 2.204158,-1.67266 c 0.453337,0.234485 0.922308,0.422074 1.40691,0.578397 l 0.437705,2.876348 c 0.03127,0.26575 0.281382,0.46897 0.562764,0.46897 l 3.470377,0 c 0.281382,0 0.500235,-0.187588 0.562764,-0.437705 0.250117,-0.937939 0.343912,-1.954042 0.453338,-2.907613 0.484602,-0.156323 0.969205,-0.359544 1.422542,-0.594029 l 2.157261,1.688292 c 0.125059,0.07816 0.26575,0.140691 0.406441,0.140691 0.531499,0 2.641864,-2.297953 3.01704,-2.798187 0.09379,-0.109427 0.140691,-0.218853 0.140691,-0.359544 0,-0.140691 -0.06253,-0.281382 -0.156323,-0.390808 -0.578396,-0.703454 -9.184055,-1.594245 -9.715554,-2.360229"
         id="path3043"
         inkscape:connector-curvature="0"
         sodipodi:nodetypes="csccccsccsccccssccccscsccccssccccsccsccccssccccscscc"
         style="fill:#4caf50;fill-opacity:1" />
    </g>
    <text
       xml:space="preserve"
       style="font-size:40px;font-style:normal;font-weight:normal;line-height:125%;letter-spacing:0px;word-spacing:0px;fill:#03a9f4;fill-opacity:1;stroke:none;font-family:Sans"
       x="41.012192"
       y="60.014488"
       id="text3049"
       sodipodi:linespacing="125%"><tspan
         sodipodi:role="line"
         id="tspan3051"
         x="41.012192"
         y="60.014488"
         style="font-style:normal;font-variant:normal;font-weight:bold;font-stretch:normal;fill:#03a9f4;font-family:FreeMono;-inkscape-font-specification:FreeMono Bold;fill-opacity:1">i</tspan></text>
    <text
       xml:space="preserve"
       style="font-size:40px;font-style:normal;font-weight:normal;line-height:125%;letter-spacing:0px;word-spacing:0px;fill:#6d8089;fill-opacity:0.19607843;stroke:none;font-family:Sans"
       x="39.811642"
       y="61.180782"
       id="text3049-3"
       sodipodi:linespacing="125%"><tspan
         sodipodi:role="line"
         id="tspan3051-4"
         x="39.811642"
         y="61.180782"
         style="font-style:normal;font-variant:normal;font-weight:bold;font-stretch:normal;fill:#6d8089;fill-opacity:0.19607843000000000;font-family:FreeMono;-inkscape-font-specification:FreeMono Bold">i</tspan></text>
    <g
       transform="matrix(0.99968174,-0.02522754,0.02522754,0.99968174,10.441785,18.227775)"
       style="font-size:28.01313590999999903px;font-style:normal;font-weight:normal;line-height:125%;letter-spacing:0px;word-spacing:0px;fill:#6f8c70;fill-opacity:0.19607843;stroke:none;font-family:Sans"
       id="text3017-1-7">
      <path
         d="m 21.835625,21.603793 c -2.204136,-0.0095 -4.001877,-1.79772 -4.001877,-4.001876 0,-2.204157 1.79772,-4.001877 4.001877,-4.001877 m -0.0065,0.03219 c -0.156323,-0.515867 8.322945,0.233554 8.057196,-0.26668 0.531499,-0.734719 1.109896,-1.422543 1.641395,-2.141629 0.07816,-0.109426 0.125058,-0.218853 0.125058,-0.359544 0,-0.125058 -0.03127,-0.250117 -0.109426,-0.343911 C 30.886745,9.5981647 29.79248,8.6289581 28.963967,7.8629746 28.854541,7.7691807 28.71385,7.7066513 28.573159,7.7066513 c -0.140691,0 -0.281382,0.046897 -0.375176,0.140691 L 25.978192,9.5200017 C 25.524855,9.2855167 25.055884,9.0979287 24.571283,8.9416054 L 24.133577,6.0652566 C 24.102313,5.7995073 23.852195,5.5962867 23.570813,5.5962867 l -3.470377,0 c -0.281382,0 -0.500235,0.1875883 -0.562764,0.4377053 -0.250117,0.9379389 -0.343911,1.9540422 -0.453337,2.9076134 -0.484602,0.1563233 -0.969205,0.3595443 -1.422542,0.5940283 L 15.504531,7.8629746 c -0.125058,-0.093794 -0.26575,-0.1563233 -0.40644,-0.1563233 -0.531499,0 -2.641865,2.2823204 -3.01704,2.7981877 -0.07816,0.109426 -0.140691,0.218853 -0.140691,0.359543 0,0.140691 0.06253,0.26575 0.156323,0.375176 0.578396,0.703454 1.141161,1.406911 1.67266,2.157262 -0.250118,0.468969 -0.453338,0.93794 -0.609661,1.438174 l -2.907614,0.437705 c -0.234485,0.0469 -0.4220728,0.32828 -0.4220728,0.562764 l 0,3.470378 c 0,0.265749 0.1875888,0.515867 0.4533378,0.562764 l 2.860716,0.422073 c 0.156323,0.531498 0.375177,1.047366 0.640926,1.5476 -0.531499,0.734719 -1.109896,1.422543 -1.641395,2.141629 -0.07816,0.109427 -0.125058,0.218853 -0.125058,0.359544 0,0.125059 0.03126,0.250117 0.109426,0.359544 0.656557,0.906674 1.750822,1.87588 2.579334,2.626231 0.109427,0.109426 0.250118,0.171956 0.390809,0.171956 0.14069,0 0.281382,-0.0469 0.390808,-0.140691 l 2.204158,-1.67266 c 0.453337,0.234485 0.922308,0.422074 1.40691,0.578397 l 0.437705,2.876348 c 0.03127,0.26575 0.281382,0.46897 0.562764,0.46897 l 3.470377,0 c 0.281382,0 0.500235,-0.187588 0.562764,-0.437705 0.250117,-0.937939 0.343912,-1.954042 0.453338,-2.907613 0.484602,-0.156323 0.969205,-0.359544 1.422542,-0.594029 l 2.157261,1.688292 c 0.125059,0.07816 0.26575,0.140691 0.406441,0.140691 0.531499,0 2.641864,-2.297953 3.01704,-2.798187 0.09379,-0.109427 0.140691,-0.218853 0.140691,-0.359544 0,-0.140691 -0.06253,-0.281382 -0.156323,-0.390808 -0.578396,-0.703454 -9.184055,-1.594245 -9.715554,-2.360229"
         id="path3043-7"
         inkscape:connector-curvature="0"
         sodipodi:nodetypes="csccccsccsccccssccccscsccccssccccsccsccccssccccscscc"
         style="fill:#6f8c70;fill-opacity:0.19607843" />
    </g>
  </g>
  <g
     inkscape:groupmode="layer"
     id="layer2"
     inkscape:label="Gears"
     style="display:inline">
    <g
       transform="matrix(0.95908904,-0.2831046,0.2831046,0.95908904,0,0)"
       style="font-size:26.50911713px;font-style:normal;font-weight:normal;line-height:125%;letter-spacing:0px;word-spacing:0px;fill:#f44336;fill-opacity:1;stroke:none;font-family:Sans"
       id="text3017">
      <path
         d="m 12.427165,17.160661 c 0,2.085815 -1.701201,3.787016 -3.7870168,3.787016 -2.0858157,0 -3.7870167,-1.701201 -3.7870167,-3.787016 0,-2.085816 1.701201,-3.787017 3.7870167,-3.787017 2.0858158,0 3.7870168,1.701201 3.7870168,3.787017 m 7.574033,-1.612441 c 0,-0.251481 -0.177516,-0.48817 -0.428998,-0.532549 l -2.707125,-0.414205 c -0.14793,-0.48817 -0.355033,-0.976341 -0.606514,-1.449718 0.502962,-0.695272 1.050306,-1.346166 1.553268,-2.026645 0.07397,-0.103551 0.118345,-0.207103 0.118345,-0.34024 0,-0.118344 -0.02959,-0.236689 -0.103552,-0.325447 C 17.205316,9.586628 16.169802,8.6694583 15.385772,7.9446004 15.282221,7.8558422 15.149083,7.79667 15.015946,7.79667 c -0.133137,0 -0.266275,0.044379 -0.355033,0.1331373 L 12.560302,9.512662 C 12.131305,9.2907667 11.687513,9.1132499 11.228929,8.9653197 L 10.814724,6.2434014 c -0.02959,-0.2514813 -0.266275,-0.443791 -0.532549,-0.443791 l -3.2840536,0 c -0.2662743,0 -0.4733771,0.1775167 -0.5325492,0.414205 C 6.2288839,7.1013965 6.1401254,8.0629455 6.0365742,8.9653197 5.5779906,9.1132499 5.1194057,9.3055597 4.6904081,9.527455 L 2.6489694,7.9446004 C 2.5306253,7.8558422 2.3974877,7.79667 2.2643505,7.79667 c -0.5029626,0 -2.50002309,2.1597835 -2.85505555,2.647953 -0.0739651,0.103551 -0.13313731,0.207103 -0.13313731,0.34024 0,0.133137 0.0591722,0.251482 0.14793034,0.355033 0.54734171,0.665686 1.07989199,1.331374 1.58285462,2.041438 -0.23668828,0.443791 -0.42899811,0.887583 -0.5769283,1.36096 L -2.32149,14.956499 c -0.2218953,0.04438 -0.399412,0.310653 -0.399412,0.532549 l 0,3.284053 c 0,0.251482 0.1775167,0.48817 0.428998,0.53255 l 2.70712527,0.399411 c 0.14793019,0.502963 0.35503307,0.991134 0.60651443,1.464511 -0.50296269,0.695272 -1.05030596,1.346167 -1.55326862,2.026646 -0.0739651,0.103551 -0.11834427,0.207102 -0.11834427,0.340239 0,0.118344 0.0295861,0.236689 0.10355124,0.34024 0.62130681,0.857995 1.65682065,1.775165 2.44085065,2.48523 0.1035511,0.103551 0.2366887,0.162723 0.3698258,0.162723 0.1331372,0 0.2662747,-0.04438 0.3698259,-0.133137 l 2.0858178,-1.582855 c 0.4289976,0.221896 0.8727895,0.399412 1.3313731,0.547343 l 0.4142049,2.721918 c 0.029586,0.251481 0.2662749,0.443791 0.5325492,0.443791 l 3.2840536,0 c 0.266274,0 0.473377,-0.177517 0.532549,-0.414205 0.236689,-0.887581 0.325447,-1.84913 0.428998,-2.751504 0.458584,-0.147931 0.917169,-0.340241 1.346166,-0.562136 l 2.041439,1.597648 c 0.118344,0.07396 0.251482,0.133137 0.384619,0.133137 0.502963,0 2.500023,-2.174576 2.855056,-2.647953 0.08876,-0.103551 0.133137,-0.207103 0.133137,-0.34024 0,-0.133137 -0.05917,-0.266274 -0.147931,-0.369826 -0.547341,-0.665685 -1.079892,-1.31658 -1.582854,-2.041438 0.236688,-0.428998 0.414205,-0.87279 0.576928,-1.346166 l 2.736711,-0.414205 c 0.236689,-0.04438 0.414205,-0.310654 0.414205,-0.53255 l 0,-3.284053"
         style=""
         id="path3022" />
    </g>
    <g
       transform="matrix(0.95908904,-0.2831046,0.2831046,0.95908904,0,0)"
       style="font-size:26.50911713px;font-style:normal;font-weight:normal;line-height:125%;letter-spacing:0px;word-spacing:0px;fill:#a18a89;fill-opacity:0.19607843;stroke:none;font-family:Sans"
       id="text3017-4">
      <path
         d="m 11.18472,17.836404 c 0,2.085815 -1.7012008,3.787016 -3.7870165,3.787016 -2.0858157,0 -3.7870168,-1.701201 -3.7870168,-3.787016 0,-2.085816 1.7012011,-3.787017 3.7870168,-3.787017 2.0858157,0 3.7870165,1.701201 3.7870165,3.787017 m 7.574034,-1.612441 c 0,-0.251481 -0.177517,-0.48817 -0.428998,-0.532549 L 15.62263,15.277209 c -0.14793,-0.48817 -0.355033,-0.976341 -0.606514,-1.449718 0.502963,-0.695271 1.050306,-1.346166 1.553269,-2.026645 0.07397,-0.103551 0.118344,-0.207103 0.118344,-0.34024 0,-0.118344 -0.02959,-0.236689 -0.103551,-0.325447 -0.621307,-0.872788 -1.656821,-1.7899576 -2.440851,-2.5148155 -0.103551,-0.088758 -0.236689,-0.1479304 -0.369826,-0.1479304 -0.133137,0 -0.266275,0.044379 -0.355033,0.1331373 l -2.10061,1.5828546 C 10.88886,9.9665098 10.445068,9.788993 9.9864844,9.6410628 L 9.5722795,6.9191445 C 9.5426935,6.6676632 9.3060046,6.4753535 9.0397303,6.4753535 l -3.2840536,0 c -0.2662744,0 -0.4733772,0.1775167 -0.5325492,0.414205 C 4.9864392,7.7771396 4.8976806,8.7386886 4.7941295,9.6410628 4.3355459,9.788993 3.8769609,9.9813028 3.4479634,10.203198 L 1.4065247,8.6203435 C 1.2881805,8.5315853 1.1550429,8.4724131 1.0219058,8.4724131 c -0.50296268,0 -2.5000231,2.1597839 -2.8550556,2.6479529 -0.073965,0.103551 -0.1331373,0.207103 -0.1331373,0.34024 0,0.133137 0.059172,0.251482 0.1479303,0.355033 0.5473417,0.665686 1.07989202,1.331374 1.58285468,2.041439 -0.23668831,0.44379 -0.42899814,0.887582 -0.57692833,1.360959 l -2.75150435,0.414205 c -0.2218953,0.04438 -0.3994119,0.310654 -0.3994119,0.532549 l 0,3.284053 c 0,0.251482 0.1775166,0.488171 0.428998,0.53255 l 2.70712521,0.399412 c 0.14793019,0.502962 0.35503307,0.991133 0.6065144,1.46451 -0.50296266,0.695272 -1.05030591,1.346167 -1.55326861,2.026646 -0.073965,0.103551 -0.1183442,0.207102 -0.1183442,0.340239 0,0.118345 0.029586,0.236689 0.1035512,0.34024 0.6213068,0.857995 1.6568206,1.775165 2.44085062,2.48523 0.10355114,0.103551 0.23668868,0.162723 0.36982588,0.162723 0.1331371,0 0.2662747,-0.04438 0.3698258,-0.133137 l 2.0858178,-1.582855 c 0.4289976,0.221896 0.8727895,0.399412 1.3313731,0.547343 l 0.414205,2.721918 c 0.029586,0.251481 0.2662748,0.443791 0.5325492,0.443791 l 3.2840536,0 c 0.2662743,0 0.4733771,-0.177517 0.5325492,-0.414205 0.2366883,-0.887581 0.3254468,-1.84913 0.4289975,-2.751504 0.458584,-0.147931 0.917169,-0.34024 1.346167,-0.562136 l 2.041438,1.597648 c 0.118344,0.07396 0.251482,0.133137 0.384619,0.133137 0.502963,0 2.500023,-2.174576 2.855056,-2.647953 0.08876,-0.103551 0.133137,-0.207102 0.133137,-0.34024 0,-0.133137 -0.05917,-0.266274 -0.14793,-0.369825 -0.547342,-0.665686 -1.079892,-1.316581 -1.582855,-2.041439 0.236688,-0.428998 0.414205,-0.87279 0.576928,-1.346166 l 2.736712,-0.414205 c 0.236688,-0.04438 0.414205,-0.310654 0.414205,-0.532549 l 0,-3.284054"
         style=""
         id="path3019" />
    </g>
  </g>
</svg>
