<?xml version="1.0" encoding="UTF-8" standalone="no"?>
<!-- Created with Inkscape (http://www.inkscape.org/) -->

<svg
   xmlns:dc="http://purl.org/dc/elements/1.1/"
   xmlns:cc="http://creativecommons.org/ns#"
   xmlns:rdf="http://www.w3.org/1999/02/22-rdf-syntax-ns#"
   xmlns:svg="http://www.w3.org/2000/svg"
   xmlns="http://www.w3.org/2000/svg"
   xmlns:sodipodi="http://sodipodi.sourceforge.net/DTD/sodipodi-0.dtd"
   xmlns:inkscape="http://www.inkscape.org/namespaces/inkscape"
   width="64px"
   height="64px"
   id="svg2985"
   version="1.1"
   inkscape:version="0.48.5 r10040"
   sodipodi:docname="icon.svg"
   inkscape:export-filename="/home/sam/gciOrg/googlecodein.github.io/icon.png"
   inkscape:export-xdpi="720"
   inkscape:export-ydpi="720">
  <defs
     id="defs2987" />
  <sodipodi:namedview
     id="base"
     pagecolor="#ffffff"
     bordercolor="#666666"
     borderopacity="1.0"
     inkscape:pageopacity="0.0"
     inkscape:pageshadow="2"
     inkscape:zoom="1.375"
     inkscape:cx="59.536938"
     inkscape:cy="15.141677"
     inkscape:current-layer="layer2"
     showgrid="true"
     inkscape:document-units="px"
     inkscape:grid-bbox="true"
     inkscape:window-width="1280"
     inkscape:window-height="734"
     inkscape:window-x="0"
     inkscape:window-y="27"
     inkscape:window-maximized="1" />
  <metadata
     id="metadata2990">
    <rdf:RDF>
      <cc:Work
         rdf:about="">
        <dc:format>image/svg+xml</dc:format>
        <dc:type
           rdf:resource="http://purl.org/dc/dcmitype/StillImage" />
        <dc:title></dc:title>
      </cc:Work>
    </rdf:RDF>
  </metadata>
  <g
     id="layer1"
     inkscape:label="Layer 1"
     inkscape:groupmode="layer">
    <flowRoot
       xml:space="preserve"
       id="flowRoot2993"
       style="font-size:40px;font-style:normal;font-weight:normal;line-height:125%;letter-spacing:0px;word-spacing:0px;fill:#000000;fill-opacity:1;stroke:none;font-family:Sans"><flowRegion
         id="flowRegion2995"><rect
           id="rect2997"
           width="67.63636"
           height="65.63636"
           x="0.54545456"
           y="0.54545456" /></flowRegion><flowPara
         id="flowPara2999">GCIGCI</flowPara><flowPara
         id="flowPara3001" /></flowRoot>    <text
       xml:space="preserve"
       style="font-size:40px;font-style:normal;font-variant:normal;font-weight:normal;font-stretch:normal;line-height:125%;letter-spacing:0px;word-spacing:0px;fill:#ffeb3b;fill-opacity:1;stroke:none;font-family:FreeMono;-inkscape-font-specification:FreeMono"
       x="2.3390908"
       y="23.176697"
       id="text3003"
       sodipodi:linespacing="125%"><tspan
         sodipodi:role="line"
         x="2.3390908"
         y="23.176697"
         id="tspan3045"
         style="font-weight:bold;-inkscape-font-specification:FreeMono Bold">g</tspan><tspan
         sodipodi:role="line"
         x="2.3390908"
         y="73.176697"
         id="tspan3007" /></text>
    <text
       xml:space="preserve"
       style="font-size:40px;font-style:normal;font-variant:normal;font-weight:normal;font-stretch:normal;line-height:125%;letter-spacing:0px;word-spacing:0px;fill:#a9a691;fill-opacity:0.19607843;stroke:none;font-family:FreeMono;-inkscape-font-specification:FreeMono"
       x="1.339"
       y="24.177"
       id="text3003-4"
       sodipodi:linespacing="125%"><tspan
         sodipodi:role="line"
         x="1.339"
         y="24.177"
         id="tspan3045-7"
         style="font-weight:bold;-inkscape-font-specification:FreeMono Bold">g</tspan><tspan
         sodipodi:role="line"
         x="1.339"
         y="74.177002"
         id="tspan3007-0" /></text>
    <flowRoot
       xml:space="preserve"
       id="flowRoot3009"
       style="fill:black;stroke:none;stroke-opacity:1;stroke-width:1px;stroke-linejoin:miter;stroke-linecap:butt;fill-opacity:1;font-family:FontAwesome;font-style:normal;font-weight:normal;font-size:40px;line-height:125%;letter-spacing:0px;word-spacing:0px;-inkscape-font-specification:FontAwesome;font-stretch:normal;font-variant:normal"><flowRegion
         id="flowRegion3011"><rect
           id="rect3013"
           width="84.545456"
           height="146.72728"
           x="-53.272728"
           y="20.727272"
           style="-inkscape-font-specification:FontAwesome;font-family:FontAwesome;font-weight:normal;font-style:normal;font-stretch:normal;font-variant:normal" /></flowRegion><flowPara
         id="flowPara3015"></flowPara></flowRoot>    <g
       transform="matrix(0.99968174,-0.02522754,0.02522754,0.99968174,11.442273,17.227692)"
       style="font-size:28.01313590999999903px;font-style:normal;font-weight:normal;line-height:125%;letter-spacing:0px;word-spacing:0px;fill:#4caf50;fill-opacity:1;stroke:none;font-family:Sans"
       id="text3017-1">
      <path
         d="m 21.835625,21.603793 c -2.204136,-0.0095 -4.001877,-1.79772 -4.001877,-4.001876 0,-2.204157 1.79772,-4.001877 4.001877,-4.001877 m -0.0065,0.03219 c -0.156323,-0.515867 8.322945,0.233554 8.057196,-0.26668 0.531499,-0.734719 1.109896,-1.422543 1.641395,-2.141629 0.07816,-0.109426 0.125058,-0.218853 0.125058,-0.359544 0,-0.125058 -0.03127,-0.250117 -0.109426,-0.343911 C 30.886745,9.5981647 29.79248,8.6289581 28.963967,7.8629746 28.854541,7.7691807 28.71385,7.7066513 28.573159,7.7066513 c -0.140691,0 -0.281382,0.046897 -0.375176,0.140691 L 25.978192,9.5200017 C 25.524855,9.2855167 25.055884,9.0979287 24.571283,8.9416054 L 24.133577,6.0652566 C 24.102313,5.7995073 23.852195,5.5962867 23.570813,5.5962867 l -3.470377,0 c -0.281382,0 -0.500235,0.1875883 -0.562764,0.4377053 -0.250117,0.9379389 -0.343911,1.9540422 -0.453337,2.9076134 -0.484602,0.1563233 -0.969205,0.3595443 -1.422542,0.5940283 L 15.504531,7.8629746 c -0.125058,-0.093794 -0.26575,-0.1563233 -0.40644,-0.1563233 -0.531499,0 -2.641865,2.2823204 -3.01704,2.7981877 -0.07816,0.109426 -0.140691,0.218853 -0.140691,0.359543 0,0.140691 0.06253,0.26575 0.156323,0.375176 0.578396,0.703454 1.141161,1.406911 1.67266,2.157262 -0.250118,0.468969 -0.453338,0.93794 -0.609661,1.438174 l -2.907614,0.437705 c -0.234485,0.0469 -0.4220728,0.32828 -0.4220728,0.562764 l 0,3.470378 c 0,0.265749 0.1875888,0.515867 0.4533378,0.562764 l 2.860716,0.422073 c 0.156323,0.531498 0.375177,1.047366 0.640926,1.5476 -0.531499,0.734719 -1.109896,1.422543 -1.641395,2.141629 -0.07816,0.109427 -0.125058,0.218853 -0.125058,0.359544 0,0.125059 0.03126,0.250117 0.109426,0.359544 0.656557,0.906674 1.750822,1.87588 2.579334,2.626231 0.109427,0.109426 0.250118,0.171956 0.390809,0.171956 0.14069,0 0.281382,-0.0469 0.390808,-0.140691 l 2.204158,-1.67266 c 0.453337,0.234485 0.922308,0.422074 1.40691,0.578397 l 0.437705,2.876348 c 0.03127,0.26575 0.281382,0.46897 0.562764,0.46897 l 3.470377,0 c 0.281382,0 0.500235,-0.187588 0.562764,-0.437705 0.250117,-0.937939 0.343912,-1.954042 0.453338,-2.907613 0.484602,-0.156323 0.969205,-0.359544 1.422542,-0.594029 l 2.157261,1.688292 c 0.125059,0.07816 0.26575,0.140691 0.406441,0.140691 0.531499,0 2.641864,-2.297953 3.01704,-2.798187 0.09379,-0.109427 0.140691,-0.218853 0.140691,-0.359544 0,-0.140691 -0.06253,-0.281382 -0.156323,-0.390808 -0.578396,-0.703454 -9.184055,-1.594245 -9.715554,-2.360229"
         id="path3043"
         inkscape:connector-curvature="0"
         sodipodi:nodetypes="csccccsccsccccssccccscsccccssccccsccsccccssccccscscc"
         style="fill:#4caf50;fill-opacity:1" />
    </g>
    <text
       xml:space="preserve"
       style="font-size:40px;font-style:normal;font-weight:normal;line-height:125%;letter-spacing:0px;word-spacing:0px;fill:#03a9f4;fill-opacity:1;stroke:none;font-family:Sans"
       x="41.012192"
       y="60.014488"
       id="text3049"
       sodipodi:linespacing="125%"><tspan
         sodipodi:role="line"
         id="tspan3051"
         x="41.012192"
         y="60.014488"
         style="font-style:normal;font-variant:normal;font-weight:bold;font-stretch:normal;fill:#03a9f4;font-family:FreeMono;-inkscape-font-specification:FreeMono Bold;fill-opacity:1">i</tspan></text>
    <text
       xml:space="preserve"
       style="font-size:40px;font-style:normal;font-weight:normal;line-height:125%;letter-spacing:0px;word-spacing:0px;fill:#6d8089;fill-opacity:0.19607843;stroke:none;font-family:Sans"
       x="39.811642"
       y="61.180782"
       id="text3049-3"
       sodipodi:linespacing="125%"><tspan
         sodipodi:role="line"
         id="tspan3051-4"
         x="39.811642"
         y="61.180782"
         style="font-style:normal;font-variant:normal;font-weight:bold;font-stretch:normal;fill:#6d8089;fill-opacity:0.19607843000000000;font-family:FreeMono;-inkscape-font-specification:FreeMono Bold">i</tspan></text>
    <g
       transform="matrix(0.99968174,-0.02522754,0.02522754,0.99968174,10.441785,18.227775)"
       style="font-size:28.01313590999999903px;font-style:normal;font-weight:normal;line-height:125%;letter-spacing:0px;word-spacing:0px;fill:#6f8c70;fill-opacity:0.19607843;stroke:none;font-family:Sans"
       id="text3017-1-7">
      <path
         d="m 21.835625,21.603793 c -2.204136,-0.0095 -4.001877,-1.79772 -4.001877,-4.001876 0,-2.204157 1.79772,-4.001877 4.001877,-4.001877 m -0.0065,0.03219 c -0.156323,-0.515867 8.322945,0.233554 8.057196,-0.26668 0.531499,-0.734719 1.109896,-1.422543 1.641395,-2.141629 0.07816,-0.109426 0.125058,-0.218853 0.125058,-0.359544 0,-0.125058 -0.03127,-0.250117 -0.109426,-0.343911 C 30.886745,9.5981647 29.79248,8.6289581 28.963967,7.8629746 28.854541,7.7691807 28.71385,7.7066513 28.573159,7.7066513 c -0.140691,0 -0.281382,0.046897 -0.375176,0.140691 L 25.978192,9.5200017 C 25.524855,9.2855167 25.055884,9.0979287 24.571283,8.9416054 L 24.133577,6.0652566 C 24.102313,5.7995073 23.852195,5.5962867 23.570813,5.5962867 l -3.470377,0 c -0.281382,0 -0.500235,0.1875883 -0.562764,0.4377053 -0.250117,0.9379389 -0.343911,1.9540422 -0.453337,2.9076134 -0.484602,0.1563233 -0.969205,0.3595443 -1.422542,0.5940283 L 15.504531,7.8629746 c -0.125058,-0.093794 -0.26575,-0.1563233 -0.40644,-0.1563233 -0.531499,0 -2.641865,2.2823204 -3.01704,2.7981877 -0.07816,0.109426 -0.140691,0.218853 -0.140691,0.359543 0,0.140691 0.06253,0.26575 0.156323,0.375176 0.578396,0.703454 1.141161,1.406911 1.67266,2.157262 -0.250118,0.468969 -0.453338,0.93794 -0.609661,1.438174 l -2.907614,0.437705 c -0.234485,0.0469 -0.4220728,0.32828 -0.4220728,0.562764 l 0,3.470378 c 0,0.265749 0.1875888,0.515867 0.4533378,0.562764 l 2.860716,0.422073 c 0.156323,0.531498 0.375177,1.047366 0.640926,1.5476 -0.531499,0.734719 -1.109896,1.422543 -1.641395,2.141629 -0.07816,0.109427 -0.125058,0.218853 -0.125058,0.359544 0,0.125059 0.03126,0.250117 0.109426,0.359544 0.656557,0.906674 1.750822,1.87588 2.579334,2.626231 0.109427,0.109426 0.250118,0.171956 0.390809,0.171956 0.14069,0 0.281382,-0.0469 0.390808,-0.140691 l 2.204158,-1.67266 c 0.453337,0.234485 0.922308,0.422074 1.40691,0.578397 l 0.437705,2.876348 c 0.03127,0.26575 0.281382,0.46897 0.562764,0.46897 l 3.470377,0 c 0.281382,0 0.500235,-0.187588 0.562764,-0.437705 0.250117,-0.937939 0.343912,-1.954042 0.453338,-2.907613 0.484602,-0.156323 0.969205,-0.359544 1.422542,-0.594029 l 2.157261,1.688292 c 0.125059,0.07816 0.26575,0.140691 0.406441,0.140691 0.531499,0 2.641864,-2.297953 3.01704,-2.798187 0.09379,-0.109427 0.140691,-0.218853 0.140691,-0.359544 0,-0.140691 -0.06253,-0.281382 -0.156323,-0.390808 -0.578396,-0.703454 -9.184055,-1.594245 -9.715554,-2.360229"
         id="path3043-7"
         inkscape:connector-curvature="0"
         sodipodi:nodetypes="csccccsccsccccssccccscsccccssccccsccsccccssccccscscc"
         style="fill:#6f8c70;fill-opacity:0.19607843" />
    </g>
  </g>
  <g
     inkscape:groupmode="layer"
     id="layer2"
     inkscape:label="Gears"
     style="display:inline">
    <text
       xml:space="preserve"
       style="font-size:26.50911713px;font-style:normal;font-weight:normal;line-height:125%;letter-spacing:0px;word-spacing:0px;fill:#a18a89;fill-opacity:0.19607843;stroke:none;font-family:Sans"
       x="-3.9633467"
       y="27.303946"
       id="text3017-4"
       sodipodi:linespacing="125%"
       transform="matrix(0.95908904,-0.2831046,0.2831046,0.95908904,0,0)"><tspan
         sodipodi:role="line"
         id="tspan3019-1"
         x="-3.9633467"
         y="27.303946"></tspan></text>
    <text
       xml:space="preserve"
       style="font-size:26.50911713px;font-style:normal;font-weight:normal;line-height:125%;letter-spacing:0px;word-spacing:0px;fill:#f44336;fill-opacity:1;stroke:none;font-family:Sans"
       x="-2.720902"
       y="26.628202"
       id="text3017"
       sodipodi:linespacing="125%"
       transform="matrix(0.95908904,-0.2831046,0.2831046,0.95908904,0,0)"><tspan
         sodipodi:role="line"
         id="tspan3019"
         x="-2.720902"
         y="26.628202"></tspan></text>
  </g>
</svg>
